<svg width="20" height="20" viewBox="0 0 20 20" fill="none" xmlns="http://www.w3.org/2000/svg">
<path d="M0 19.6667V16.3333C0 16.1492 0.144424 16 0.322581 16H2.25806L4.19355 13.6667L1.77586 10.8561C1.67089 10.7341 1.6129 10.5765 1.6129 10.4132V8.66667C1.6129 8.29848 1.90175 8 2.25806 8H4.38251C4.63446 8 4.83871 8.21106 4.83871 8.4714C4.83871 8.59643 4.79065 8.71633 4.70509 8.80474L3.87097 9.66667L10.3226 16.6667L11.4793 15.4714C11.5648 15.383 11.6809 15.3333 11.8019 15.3333C12.0538 15.3333 12.2581 15.5444 12.2581 15.8047V18C12.2581 18.3682 11.9692 18.6667 11.6129 18.6667H9.27755C9.11954 18.6667 8.96702 18.6067 8.84893 18.4983L6.12903 16L3.87097 17.6667V19.6667C3.87097 19.8508 3.72654 20 3.54839 20H0.322581C0.144424 20 0 19.8508 0 19.6667Z" fill="#B8941F"/>
<path d="M6.12903 10L15.4839 0H20V4.66667L10 14L8.3871 12.3333L14.1046 6.66667L16.129 4L13.4594 6L7.74194 11.6667L6.12903 10Z" fill="#B8941F"/>
</svg>
