<svg width="40" height="40" viewBox="0 0 40 40" fill="none" xmlns="http://www.w3.org/2000/svg">
<path d="M0 39.3333V32.6667C0 32.2985 0.288849 32 0.645161 32H4.51613L8.3871 27.3333L3.55173 21.7122C3.34178 21.4682 3.22581 21.153 3.22581 20.8264V17.3333C3.22581 16.597 3.8035 16 4.51613 16H8.76502C9.26893 16 9.67742 16.4221 9.67742 16.9428C9.67742 17.1929 9.58129 17.4327 9.41018 17.6095L7.74194 19.3333L20.6452 33.3333L22.9586 30.9428C23.1297 30.766 23.3617 30.6667 23.6037 30.6667C24.1076 30.6667 24.5161 31.0888 24.5161 31.6095V36C24.5161 36.7364 23.9384 37.3333 23.2258 37.3333H18.5551C18.2391 37.3333 17.934 37.2135 17.6979 36.9965L12.2581 32L7.74194 35.3333V39.3333C7.74194 39.7015 7.45309 40 7.09677 40H0.645161C0.288849 40 0 39.7015 0 39.3333Z" fill="#B8941F"/>
<path d="M12.2581 20L30.9677 0H40V9.33333L20 28L16.7742 24.6667L28.2091 13.3333L32.2581 8L26.9188 12L15.4839 23.3333L12.2581 20Z" fill="#B8941F"/>
</svg>
