<svg width="44" height="45" viewBox="0 0 44 45" fill="none" xmlns="http://www.w3.org/2000/svg">
<g clip-path="url(#clip0_13_9)">
<path d="M16.0461 28.5137L18.9857 40.0405C19.0519 40.2836 19.1806 40.5053 19.359 40.6833C19.5374 40.8613 19.7594 40.9894 20.0027 41.0551C20.2461 41.1207 20.5023 41.1214 20.7461 41.0572C20.9898 40.993 21.2124 40.8661 21.3919 40.6892L30.0022 32.0098C30.1777 31.829 30.3028 31.6053 30.3651 31.3611C30.4273 31.1168 30.4245 30.8606 30.357 30.6178C30.2894 30.3749 30.1595 30.154 29.98 29.977C29.8006 29.8 29.578 29.6731 29.3343 29.6089L17.7844 26.7614C17.5432 26.7034 17.2911 26.7085 17.0525 26.7763C16.8138 26.844 16.5967 26.9721 16.422 27.1482C16.2473 27.3243 16.1209 27.5425 16.055 27.7817C15.9892 28.0209 15.9861 28.273 16.0461 28.5137Z" stroke="#F4D03F" stroke-width="3" stroke-linecap="round" stroke-linejoin="round"/>
</g>
<g clip-path="url(#clip1_13_9)">
<path d="M26.72 17.7542L29.6596 29.281C29.7258 29.5241 29.8545 29.7458 30.0329 29.9238C30.2113 30.1018 30.4332 30.23 30.6766 30.2956C30.9199 30.3612 31.1762 30.3619 31.4199 30.2977C31.6637 30.2335 31.8863 30.1066 32.0658 29.9297L40.6761 21.2503C40.8516 21.0695 40.9767 20.8458 41.0389 20.6016C41.1012 20.3573 41.0984 20.1011 41.0308 19.8583C40.9633 19.6154 40.8333 19.3945 40.6539 19.2175C40.4745 19.0405 40.2519 18.9136 40.0082 18.8494L28.4583 16.0019C28.2171 15.9439 27.965 15.949 27.7264 16.0168C27.4877 16.0845 27.2706 16.2126 27.0959 16.3887C26.9211 16.5649 26.7948 16.783 26.7289 17.0222C26.6631 17.2614 26.66 17.5135 26.72 17.7542Z" stroke="#F4D03F" stroke-width="3" stroke-linecap="round" stroke-linejoin="round"/>
</g>
<g clip-path="url(#clip2_13_9)">
<path d="M12.5449 14.3661L15.4845 25.8929C15.5506 26.1361 15.6794 26.3577 15.8578 26.5357C16.0362 26.7137 16.2581 26.8419 16.5015 26.9075C16.7448 26.9731 17.0011 26.9738 17.2448 26.9096C17.4886 26.8454 17.7112 26.7185 17.8907 26.5416L26.501 17.8623C26.6765 17.6814 26.8016 17.4577 26.8638 17.2135C26.9261 16.9693 26.9233 16.713 26.8557 16.4702C26.7882 16.2274 26.6582 16.0065 26.4788 15.8295C26.2994 15.6525 26.0768 15.5255 25.833 15.4613L14.2832 12.6139C14.042 12.5558 13.7899 12.5609 13.5513 12.6287C13.3126 12.6964 13.0955 12.8245 12.9208 13.0007C12.746 13.1768 12.6197 13.3949 12.5538 13.6341C12.488 13.8733 12.4849 14.1254 12.5449 14.3661Z" stroke="#F4D03F" stroke-width="3" stroke-linecap="round" stroke-linejoin="round"/>
</g>
<defs>
<clipPath id="clip0_13_9">
<rect width="17.3209" height="17.3209" fill="white" transform="translate(8.83817 31.8239) rotate(-45.2289)"/>
</clipPath>
<clipPath id="clip1_13_9">
<rect width="17.3209" height="17.3209" fill="white" transform="translate(19.5121 21.0644) rotate(-45.2289)"/>
</clipPath>
<clipPath id="clip2_13_9">
<rect width="17.3209" height="17.3209" fill="white" transform="translate(5.33694 17.6763) rotate(-45.2289)"/>
</clipPath>
</defs>
</svg>
