<svg width="42" height="41" viewBox="0 0 42 41" fill="none" xmlns="http://www.w3.org/2000/svg">
<g clip-path="url(#clip0_4_17)">
<path d="M14.2114 25.7266L15.2145 36.9143C15.2395 37.1509 15.3265 37.3759 15.4667 37.5671C15.6069 37.7582 15.7954 37.9088 16.0135 38.0038C16.2317 38.0988 16.4718 38.1349 16.71 38.1085C16.9482 38.0822 17.1762 37.9942 17.3714 37.8535L26.7619 30.9252C26.9539 30.7803 27.1052 30.5884 27.2007 30.3685C27.2962 30.1487 27.3325 29.9086 27.3061 29.6722C27.2797 29.4357 27.1915 29.2111 27.0502 29.0208C26.9089 28.8304 26.7195 28.681 26.5008 28.5872L16.1072 24.3279C15.89 24.2403 15.6529 24.2102 15.4189 24.2406C15.1849 24.271 14.9619 24.3608 14.7713 24.5014C14.5808 24.642 14.4292 24.8286 14.3311 25.0432C14.233 25.2578 14.1918 25.4932 14.2114 25.7266Z" stroke="#4A7C2C" stroke-width="3" stroke-linecap="round" stroke-linejoin="round"/>
</g>
<g clip-path="url(#clip1_4_17)">
<path d="M25.8526 17.1378L26.8556 28.3254C26.8807 28.562 26.9676 28.7871 27.1078 28.9783C27.248 29.1694 27.4366 29.32 27.6547 29.415C27.8728 29.51 28.113 29.5461 28.3512 29.5197C28.5894 29.4933 28.8174 29.4054 29.0125 29.2647L38.4031 22.3364C38.5951 22.1915 38.7464 21.9995 38.8418 21.7797C38.9373 21.5599 38.9737 21.3198 38.9473 21.0833C38.9209 20.8469 38.8326 20.6223 38.6914 20.432C38.5501 20.2416 38.3607 20.0921 38.142 19.9984L27.7484 15.7391C27.5311 15.6515 27.2941 15.6214 27.0601 15.6518C26.8261 15.6822 26.603 15.772 26.4125 15.9126C26.2219 16.0532 26.0703 16.2398 25.9722 16.4544C25.8742 16.669 25.8329 16.9044 25.8526 17.1378Z" stroke="#4A7C2C" stroke-width="3" stroke-linecap="round" stroke-linejoin="round"/>
</g>
<g clip-path="url(#clip2_4_17)">
<path d="M13.0803 12.0101L14.0834 23.1977C14.1085 23.4343 14.1954 23.6594 14.3356 23.8505C14.4758 24.0417 14.6643 24.1922 14.8825 24.2872C15.1006 24.3822 15.3407 24.4183 15.5789 24.3919C15.8172 24.3656 16.0452 24.2777 16.2403 24.1369L25.6308 17.2086C25.8229 17.0637 25.9741 16.8718 26.0696 16.6519C26.1651 16.4321 26.2014 16.192 26.175 15.9556C26.1486 15.7191 26.0604 15.4946 25.9191 15.3042C25.7779 15.1139 25.5885 14.9644 25.3698 14.8706L14.9762 10.6113C14.7589 10.5237 14.5218 10.4936 14.2878 10.524C14.0538 10.5544 13.8308 10.6442 13.6403 10.7848C13.4497 10.9254 13.2981 11.112 13.2 11.3266C13.1019 11.5412 13.0607 11.7766 13.0803 12.0101Z" stroke="#4A7C2C" stroke-width="3" stroke-linecap="round" stroke-linejoin="round"/>
</g>
<defs>
<clipPath id="clip0_4_17">
<rect width="16.5333" height="16.2909" fill="white" transform="translate(6.95166 27.8268) rotate(-36.4198)"/>
</clipPath>
<clipPath id="clip1_4_17">
<rect width="16.5333" height="16.2909" fill="white" transform="translate(18.5928 19.238) rotate(-36.4198)"/>
</clipPath>
<clipPath id="clip2_4_17">
<rect width="16.5333" height="16.2909" fill="white" transform="translate(5.82059 14.1102) rotate(-36.4198)"/>
</clipPath>
</defs>
</svg>
